ISO-10303-21;
HEADER;
/* Generated by software containing ST-Developer
 * from STEP Tools, Inc. (www.steptools.com) 
 */

FILE_DESCRIPTION(
/* description */ (''),
/* implementation_level */ '2;1');

FILE_NAME(
/* name */ 'encoder_insertion_tool.step',
/* time_stamp */ '2026-09-01T21:20:58-04:00',
/* author */ (''),
/* organization */ (''),
/* preprocessor_version */ 'ST-DEVELOPER v20.1',
/* originating_system */ 'Autodesk Translation Framework v15.8.0.0',
/* authorisation */ '');

FILE_SCHEMA (('AUTOMOTIVE_DESIGN { 1 0 10303 214 3 1 1 }'));
ENDSEC;

DATA;
#10=MECHANICAL_DESIGN_GEOMETRIC_PRESENTATION_REPRESENTATION('',(#13),#599);
#11=SHAPE_REPRESENTATION_RELATIONSHIP('SRR','None',#606,#12);
#12=ADVANCED_BREP_SHAPE_REPRESENTATION('',(#14),#598);
#13=STYLED_ITEM('',(#615),#14);
#14=MANIFOLD_SOLID_BREP('Encoder Insertion Tool',#341);
#15=CYLINDRICAL_SURFACE('',#372,1.75);
#16=CYLINDRICAL_SURFACE('',#374,1.75);
#17=CYLINDRICAL_SURFACE('',#376,1.75);
#18=CYLINDRICAL_SURFACE('',#378,3.5);
#19=CYLINDRICAL_SURFACE('',#381,3.5);
#20=CYLINDRICAL_SURFACE('',#385,3.5);
#21=CYLINDRICAL_SURFACE('',#390,1.75);
#22=CYLINDRICAL_SURFACE('',#392,3.5);
#23=FACE_BOUND('',#52,.T.);
#24=FACE_BOUND('',#54,.T.);
#25=FACE_BOUND('',#56,.T.);
#26=FACE_BOUND('',#67,.T.);
#27=FACE_BOUND('',#68,.T.);
#28=FACE_BOUND('',#69,.T.);
#29=FACE_BOUND('',#70,.T.);
#30=FACE_BOUND('',#74,.T.);
#31=FACE_OUTER_BOUND('',#49,.T.);
#32=FACE_OUTER_BOUND('',#50,.T.);
#33=FACE_OUTER_BOUND('',#51,.T.);
#34=FACE_OUTER_BOUND('',#53,.T.);
#35=FACE_OUTER_BOUND('',#55,.T.);
#36=FACE_OUTER_BOUND('',#57,.T.);
#37=FACE_OUTER_BOUND('',#58,.T.);
#38=FACE_OUTER_BOUND('',#59,.T.);
#39=FACE_OUTER_BOUND('',#60,.T.);
#40=FACE_OUTER_BOUND('',#61,.T.);
#41=FACE_OUTER_BOUND('',#62,.T.);
#42=FACE_OUTER_BOUND('',#63,.T.);
#43=FACE_OUTER_BOUND('',#64,.T.);
#44=FACE_OUTER_BOUND('',#65,.T.);
#45=FACE_OUTER_BOUND('',#66,.T.);
#46=FACE_OUTER_BOUND('',#71,.T.);
#47=FACE_OUTER_BOUND('',#72,.T.);
#48=FACE_OUTER_BOUND('',#73,.T.);
#49=EDGE_LOOP('',(#221,#222,#223,#224,#225,#226,#227,#228,#229,#230));
#50=EDGE_LOOP('',(#231,#232,#233,#234));
#51=EDGE_LOOP('',(#235));
#52=EDGE_LOOP('',(#236));
#53=EDGE_LOOP('',(#237));
#54=EDGE_LOOP('',(#238));
#55=EDGE_LOOP('',(#239));
#56=EDGE_LOOP('',(#240));
#57=EDGE_LOOP('',(#241,#242,#243,#244));
#58=EDGE_LOOP('',(#245,#246,#247,#248));
#59=EDGE_LOOP('',(#249,#250,#251,#252));
#60=EDGE_LOOP('',(#253,#254,#255,#256,#257,#258,#259,#260));
#61=EDGE_LOOP('',(#261,#262,#263,#264));
#62=EDGE_LOOP('',(#265,#266,#267,#268,#269,#270,#271,#272));
#63=EDGE_LOOP('',(#273,#274,#275,#276));
#64=EDGE_LOOP('',(#277,#278,#279,#280));
#65=EDGE_LOOP('',(#281,#282,#283,#284,#285,#286,#287));
#66=EDGE_LOOP('',(#288,#289,#290,#291,#292,#293,#294,#295));
#67=EDGE_LOOP('',(#296));
#68=EDGE_LOOP('',(#297));
#69=EDGE_LOOP('',(#298));
#70=EDGE_LOOP('',(#299));
#71=EDGE_LOOP('',(#300,#301,#302,#303));
#72=EDGE_LOOP('',(#304,#305,#306,#307,#308,#309,#310));
#73=EDGE_LOOP('',(#311));
#74=EDGE_LOOP('',(#312));
#75=LINE('',#507,#99);
#76=LINE('',#511,#100);
#77=LINE('',#517,#101);
#78=LINE('',#522,#102);
#79=LINE('',#525,#103);
#80=LINE('',#527,#104);
#81=LINE('',#528,#105);
#82=LINE('',#547,#106);
#83=LINE('',#551,#107);
#84=LINE('',#555,#108);
#85=LINE('',#559,#109);
#86=LINE('',#560,#110);
#87=LINE('',#563,#111);
#88=LINE('',#564,#112);
#89=LINE('',#568,#113);
#90=LINE('',#569,#114);
#91=LINE('',#572,#115);
#92=LINE('',#573,#116);
#93=LINE('',#576,#117);
#94=LINE('',#578,#118);
#95=LINE('',#579,#119);
#96=LINE('',#582,#120);
#97=LINE('',#589,#121);
#98=LINE('',#593,#122);
#99=VECTOR('',#401,10.);
#100=VECTOR('',#404,10.);
#101=VECTOR('',#409,10.);
#102=VECTOR('',#414,10.);
#103=VECTOR('',#417,10.);
#104=VECTOR('',#418,10.);
#105=VECTOR('',#419,10.);
#106=VECTOR('',#442,1.75);
#107=VECTOR('',#447,1.75);
#108=VECTOR('',#452,1.75);
#109=VECTOR('',#457,10.);
#110=VECTOR('',#458,3.5);
#111=VECTOR('',#461,10.);
#112=VECTOR('',#462,10.);
#113=VECTOR('',#467,10.);
#114=VECTOR('',#468,3.5);
#115=VECTOR('',#471,10.);
#116=VECTOR('',#472,10.);
#117=VECTOR('',#475,10.);
#118=VECTOR('',#476,10.);
#119=VECTOR('',#477,10.);
#120=VECTOR('',#482,3.5);
#121=VECTOR('',#491,1.75);
#122=VECTOR('',#496,3.5);
#123=CIRCLE('',#356,3.5);
#124=CIRCLE('',#357,3.5);
#125=CIRCLE('',#358,3.5);
#126=CIRCLE('',#359,3.5);
#127=CIRCLE('',#360,3.5);
#128=CIRCLE('',#361,3.5);
#129=CIRCLE('',#364,3.5);
#130=CIRCLE('',#365,1.75);
#131=CIRCLE('',#367,3.5);
#132=CIRCLE('',#368,1.75);
#133=CIRCLE('',#370,3.5);
#134=CIRCLE('',#371,1.75);
#135=CIRCLE('',#373,1.75);
#136=CIRCLE('',#375,1.75);
#137=CIRCLE('',#377,1.75);
#138=CIRCLE('',#379,3.5);
#139=CIRCLE('',#382,3.5);
#140=CIRCLE('',#386,3.5);
#141=CIRCLE('',#388,3.5);
#142=CIRCLE('',#389,1.75);
#143=CIRCLE('',#391,1.75);
#144=CIRCLE('',#393,3.5);
#145=VERTEX_POINT('',#503);
#146=VERTEX_POINT('',#504);
#147=VERTEX_POINT('',#506);
#148=VERTEX_POINT('',#508);
#149=VERTEX_POINT('',#510);
#150=VERTEX_POINT('',#512);
#151=VERTEX_POINT('',#514);
#152=VERTEX_POINT('',#516);
#153=VERTEX_POINT('',#518);
#154=VERTEX_POINT('',#520);
#155=VERTEX_POINT('',#524);
#156=VERTEX_POINT('',#526);
#157=VERTEX_POINT('',#530);
#158=VERTEX_POINT('',#532);
#159=VERTEX_POINT('',#535);
#160=VERTEX_POINT('',#537);
#161=VERTEX_POINT('',#540);
#162=VERTEX_POINT('',#542);
#163=VERTEX_POINT('',#545);
#164=VERTEX_POINT('',#549);
#165=VERTEX_POINT('',#553);
#166=VERTEX_POINT('',#557);
#167=VERTEX_POINT('',#562);
#168=VERTEX_POINT('',#566);
#169=VERTEX_POINT('',#571);
#170=VERTEX_POINT('',#575);
#171=VERTEX_POINT('',#577);
#172=VERTEX_POINT('',#585);
#173=VERTEX_POINT('',#588);
#174=VERTEX_POINT('',#592);
#175=EDGE_CURVE('',#145,#146,#123,.T.);
#176=EDGE_CURVE('',#147,#145,#75,.T.);
#177=EDGE_CURVE('',#148,#147,#124,.T.);
#178=EDGE_CURVE('',#149,#148,#76,.T.);
#179=EDGE_CURVE('',#150,#149,#125,.T.);
#180=EDGE_CURVE('',#151,#150,#126,.T.);
#181=EDGE_CURVE('',#152,#151,#77,.T.);
#182=EDGE_CURVE('',#153,#152,#127,.T.);
#183=EDGE_CURVE('',#154,#153,#128,.T.);
#184=EDGE_CURVE('',#146,#154,#78,.T.);
#185=EDGE_CURVE('',#148,#155,#79,.T.);
#186=EDGE_CURVE('',#156,#155,#80,.T.);
#187=EDGE_CURVE('',#149,#156,#81,.T.);
#188=EDGE_CURVE('',#157,#157,#129,.T.);
#189=EDGE_CURVE('',#158,#158,#130,.T.);
#190=EDGE_CURVE('',#159,#159,#131,.T.);
#191=EDGE_CURVE('',#160,#160,#132,.T.);
#192=EDGE_CURVE('',#161,#161,#133,.T.);
#193=EDGE_CURVE('',#162,#162,#134,.T.);
#194=EDGE_CURVE('',#163,#163,#135,.T.);
#195=EDGE_CURVE('',#163,#162,#82,.T.);
#196=EDGE_CURVE('',#164,#164,#136,.T.);
#197=EDGE_CURVE('',#164,#158,#83,.T.);
#198=EDGE_CURVE('',#165,#165,#137,.T.);
#199=EDGE_CURVE('',#165,#160,#84,.T.);
#200=EDGE_CURVE('',#166,#156,#138,.T.);
#201=EDGE_CURVE('',#151,#166,#85,.T.);
#202=EDGE_CURVE('',#150,#157,#86,.T.);
#203=EDGE_CURVE('',#167,#166,#87,.T.);
#204=EDGE_CURVE('',#152,#167,#88,.T.);
#205=EDGE_CURVE('',#168,#167,#139,.T.);
#206=EDGE_CURVE('',#154,#168,#89,.T.);
#207=EDGE_CURVE('',#153,#159,#90,.T.);
#208=EDGE_CURVE('',#169,#168,#91,.T.);
#209=EDGE_CURVE('',#146,#169,#92,.T.);
#210=EDGE_CURVE('',#145,#170,#93,.T.);
#211=EDGE_CURVE('',#171,#170,#94,.T.);
#212=EDGE_CURVE('',#147,#171,#95,.T.);
#213=EDGE_CURVE('',#155,#171,#140,.T.);
#214=EDGE_CURVE('',#147,#161,#96,.T.);
#215=EDGE_CURVE('',#170,#169,#141,.T.);
#216=EDGE_CURVE('',#172,#172,#142,.T.);
#217=EDGE_CURVE('',#172,#173,#97,.T.);
#218=EDGE_CURVE('',#173,#173,#143,.T.);
#219=EDGE_CURVE('',#145,#174,#98,.T.);
#220=EDGE_CURVE('',#174,#174,#144,.T.);
#221=ORIENTED_EDGE('',*,*,#175,.F.);
#222=ORIENTED_EDGE('',*,*,#176,.F.);
#223=ORIENTED_EDGE('',*,*,#177,.F.);
#224=ORIENTED_EDGE('',*,*,#178,.F.);
#225=ORIENTED_EDGE('',*,*,#179,.F.);
#226=ORIENTED_EDGE('',*,*,#180,.F.);
#227=ORIENTED_EDGE('',*,*,#181,.F.);
#228=ORIENTED_EDGE('',*,*,#182,.F.);
#229=ORIENTED_EDGE('',*,*,#183,.F.);
#230=ORIENTED_EDGE('',*,*,#184,.F.);
#231=ORIENTED_EDGE('',*,*,#178,.T.);
#232=ORIENTED_EDGE('',*,*,#185,.T.);
#233=ORIENTED_EDGE('',*,*,#186,.F.);
#234=ORIENTED_EDGE('',*,*,#187,.F.);
#235=ORIENTED_EDGE('',*,*,#188,.F.);
#236=ORIENTED_EDGE('',*,*,#189,.T.);
#237=ORIENTED_EDGE('',*,*,#190,.F.);
#238=ORIENTED_EDGE('',*,*,#191,.T.);
#239=ORIENTED_EDGE('',*,*,#192,.F.);
#240=ORIENTED_EDGE('',*,*,#193,.T.);
#241=ORIENTED_EDGE('',*,*,#194,.F.);
#242=ORIENTED_EDGE('',*,*,#195,.T.);
#243=ORIENTED_EDGE('',*,*,#193,.F.);
#244=ORIENTED_EDGE('',*,*,#195,.F.);
#245=ORIENTED_EDGE('',*,*,#196,.F.);
#246=ORIENTED_EDGE('',*,*,#197,.T.);
#247=ORIENTED_EDGE('',*,*,#189,.F.);
#248=ORIENTED_EDGE('',*,*,#197,.F.);
#249=ORIENTED_EDGE('',*,*,#198,.F.);
#250=ORIENTED_EDGE('',*,*,#199,.T.);
#251=ORIENTED_EDGE('',*,*,#191,.F.);
#252=ORIENTED_EDGE('',*,*,#199,.F.);
#253=ORIENTED_EDGE('',*,*,#187,.T.);
#254=ORIENTED_EDGE('',*,*,#200,.F.);
#255=ORIENTED_EDGE('',*,*,#201,.F.);
#256=ORIENTED_EDGE('',*,*,#180,.T.);
#257=ORIENTED_EDGE('',*,*,#202,.T.);
#258=ORIENTED_EDGE('',*,*,#188,.T.);
#259=ORIENTED_EDGE('',*,*,#202,.F.);
#260=ORIENTED_EDGE('',*,*,#179,.T.);
#261=ORIENTED_EDGE('',*,*,#181,.T.);
#262=ORIENTED_EDGE('',*,*,#201,.T.);
#263=ORIENTED_EDGE('',*,*,#203,.F.);
#264=ORIENTED_EDGE('',*,*,#204,.F.);
#265=ORIENTED_EDGE('',*,*,#204,.T.);
#266=ORIENTED_EDGE('',*,*,#205,.F.);
#267=ORIENTED_EDGE('',*,*,#206,.F.);
#268=ORIENTED_EDGE('',*,*,#183,.T.);
#269=ORIENTED_EDGE('',*,*,#207,.T.);
#270=ORIENTED_EDGE('',*,*,#190,.T.);
#271=ORIENTED_EDGE('',*,*,#207,.F.);
#272=ORIENTED_EDGE('',*,*,#182,.T.);
#273=ORIENTED_EDGE('',*,*,#184,.T.);
#274=ORIENTED_EDGE('',*,*,#206,.T.);
#275=ORIENTED_EDGE('',*,*,#208,.F.);
#276=ORIENTED_EDGE('',*,*,#209,.F.);
#277=ORIENTED_EDGE('',*,*,#176,.T.);
#278=ORIENTED_EDGE('',*,*,#210,.T.);
#279=ORIENTED_EDGE('',*,*,#211,.F.);
#280=ORIENTED_EDGE('',*,*,#212,.F.);
#281=ORIENTED_EDGE('',*,*,#212,.T.);
#282=ORIENTED_EDGE('',*,*,#213,.F.);
#283=ORIENTED_EDGE('',*,*,#185,.F.);
#284=ORIENTED_EDGE('',*,*,#177,.T.);
#285=ORIENTED_EDGE('',*,*,#214,.T.);
#286=ORIENTED_EDGE('',*,*,#192,.T.);
#287=ORIENTED_EDGE('',*,*,#214,.F.);
#288=ORIENTED_EDGE('',*,*,#213,.T.);
#289=ORIENTED_EDGE('',*,*,#211,.T.);
#290=ORIENTED_EDGE('',*,*,#215,.T.);
#291=ORIENTED_EDGE('',*,*,#208,.T.);
#292=ORIENTED_EDGE('',*,*,#205,.T.);
#293=ORIENTED_EDGE('',*,*,#203,.T.);
#294=ORIENTED_EDGE('',*,*,#200,.T.);
#295=ORIENTED_EDGE('',*,*,#186,.T.);
#296=ORIENTED_EDGE('',*,*,#198,.T.);
#297=ORIENTED_EDGE('',*,*,#196,.T.);
#298=ORIENTED_EDGE('',*,*,#194,.T.);
#299=ORIENTED_EDGE('',*,*,#216,.T.);
#300=ORIENTED_EDGE('',*,*,#216,.F.);
#301=ORIENTED_EDGE('',*,*,#217,.T.);
#302=ORIENTED_EDGE('',*,*,#218,.F.);
#303=ORIENTED_EDGE('',*,*,#217,.F.);
#304=ORIENTED_EDGE('',*,*,#209,.T.);
#305=ORIENTED_EDGE('',*,*,#215,.F.);
#306=ORIENTED_EDGE('',*,*,#210,.F.);
#307=ORIENTED_EDGE('',*,*,#219,.T.);
#308=ORIENTED_EDGE('',*,*,#220,.T.);
#309=ORIENTED_EDGE('',*,*,#219,.F.);
#310=ORIENTED_EDGE('',*,*,#175,.T.);
#311=ORIENTED_EDGE('',*,*,#220,.F.);
#312=ORIENTED_EDGE('',*,*,#218,.T.);
#313=PLANE('',#355);
#314=PLANE('',#362);
#315=PLANE('',#363);
#316=PLANE('',#366);
#317=PLANE('',#369);
#318=PLANE('',#380);
#319=PLANE('',#383);
#320=PLANE('',#384);
#321=PLANE('',#387);
#322=PLANE('',#394);
#323=ADVANCED_FACE('',(#31),#313,.F.);
#324=ADVANCED_FACE('',(#32),#314,.T.);
#325=ADVANCED_FACE('',(#33,#23),#315,.F.);
#326=ADVANCED_FACE('',(#34,#24),#316,.F.);
#327=ADVANCED_FACE('',(#35,#25),#317,.F.);
#328=ADVANCED_FACE('',(#36),#15,.F.);
#329=ADVANCED_FACE('',(#37),#16,.F.);
#330=ADVANCED_FACE('',(#38),#17,.F.);
#331=ADVANCED_FACE('',(#39),#18,.T.);
#332=ADVANCED_FACE('',(#40),#318,.T.);
#333=ADVANCED_FACE('',(#41),#19,.T.);
#334=ADVANCED_FACE('',(#42),#319,.T.);
#335=ADVANCED_FACE('',(#43),#320,.T.);
#336=ADVANCED_FACE('',(#44),#20,.T.);
#337=ADVANCED_FACE('',(#45,#26,#27,#28,#29),#321,.T.);
#338=ADVANCED_FACE('',(#46),#21,.F.);
#339=ADVANCED_FACE('',(#47),#22,.T.);
#340=ADVANCED_FACE('',(#48,#30),#322,.F.);
#341=CLOSED_SHELL('',(#323,#324,#325,#326,#327,#328,#329,#330,#331,#332,
#333,#334,#335,#336,#337,#338,#339,#340));
#342=DERIVED_UNIT_ELEMENT(#344,1.);
#343=DERIVED_UNIT_ELEMENT(#601,-3.);
#344=(
MASS_UNIT()
NAMED_UNIT(*)
SI_UNIT(.KILO.,.GRAM.)
);
#345=DERIVED_UNIT((#342,#343));
#346=MEASURE_REPRESENTATION_ITEM('density measure',
POSITIVE_RATIO_MEASURE(7850.),#345);
#347=PROPERTY_DEFINITION_REPRESENTATION(#352,#349);
#348=PROPERTY_DEFINITION_REPRESENTATION(#353,#350);
#349=REPRESENTATION('material name',(#351),#598);
#350=REPRESENTATION('density',(#346),#598);
#351=DESCRIPTIVE_REPRESENTATION_ITEM('Steel','Steel');
#352=PROPERTY_DEFINITION('material property','material name',#608);
#353=PROPERTY_DEFINITION('material property','density of part',#608);
#354=AXIS2_PLACEMENT_3D('',#501,#395,#396);
#355=AXIS2_PLACEMENT_3D('',#502,#397,#398);
#356=AXIS2_PLACEMENT_3D('',#505,#399,#400);
#357=AXIS2_PLACEMENT_3D('',#509,#402,#403);
#358=AXIS2_PLACEMENT_3D('',#513,#405,#406);
#359=AXIS2_PLACEMENT_3D('',#515,#407,#408);
#360=AXIS2_PLACEMENT_3D('',#519,#410,#411);
#361=AXIS2_PLACEMENT_3D('',#521,#412,#413);
#362=AXIS2_PLACEMENT_3D('',#523,#415,#416);
#363=AXIS2_PLACEMENT_3D('',#529,#420,#421);
#364=AXIS2_PLACEMENT_3D('',#531,#422,#423);
#365=AXIS2_PLACEMENT_3D('',#533,#424,#425);
#366=AXIS2_PLACEMENT_3D('',#534,#426,#427);
#367=AXIS2_PLACEMENT_3D('',#536,#428,#429);
#368=AXIS2_PLACEMENT_3D('',#538,#430,#431);
#369=AXIS2_PLACEMENT_3D('',#539,#432,#433);
#370=AXIS2_PLACEMENT_3D('',#541,#434,#435);
#371=AXIS2_PLACEMENT_3D('',#543,#436,#437);
#372=AXIS2_PLACEMENT_3D('',#544,#438,#439);
#373=AXIS2_PLACEMENT_3D('',#546,#440,#441);
#374=AXIS2_PLACEMENT_3D('',#548,#443,#444);
#375=AXIS2_PLACEMENT_3D('',#550,#445,#446);
#376=AXIS2_PLACEMENT_3D('',#552,#448,#449);
#377=AXIS2_PLACEMENT_3D('',#554,#450,#451);
#378=AXIS2_PLACEMENT_3D('',#556,#453,#454);
#379=AXIS2_PLACEMENT_3D('',#558,#455,#456);
#380=AXIS2_PLACEMENT_3D('',#561,#459,#460);
#381=AXIS2_PLACEMENT_3D('',#565,#463,#464);
#382=AXIS2_PLACEMENT_3D('',#567,#465,#466);
#383=AXIS2_PLACEMENT_3D('',#570,#469,#470);
#384=AXIS2_PLACEMENT_3D('',#574,#473,#474);
#385=AXIS2_PLACEMENT_3D('',#580,#478,#479);
#386=AXIS2_PLACEMENT_3D('',#581,#480,#481);
#387=AXIS2_PLACEMENT_3D('',#583,#483,#484);
#388=AXIS2_PLACEMENT_3D('',#584,#485,#486);
#389=AXIS2_PLACEMENT_3D('',#586,#487,#488);
#390=AXIS2_PLACEMENT_3D('',#587,#489,#490);
#391=AXIS2_PLACEMENT_3D('',#590,#492,#493);
#392=AXIS2_PLACEMENT_3D('',#591,#494,#495);
#393=AXIS2_PLACEMENT_3D('',#594,#497,#498);
#394=AXIS2_PLACEMENT_3D('',#595,#499,#500);
#395=DIRECTION('axis',(0.,0.,1.));
#396=DIRECTION('refdir',(1.,0.,0.));
#397=DIRECTION('center_axis',(-2.77555756156289E-17,-5.55111512312578E-17,
1.));
#398=DIRECTION('ref_axis',(1.,0.,2.77555756156289E-17));
#399=DIRECTION('center_axis',(2.77555756156289E-17,5.55111512312578E-17,
-1.));
#400=DIRECTION('ref_axis',(-1.,1.54074395550979E-33,-2.77555756156289E-17));
#401=DIRECTION('',(-1.71056941445901E-49,1.,5.55111512312578E-17));
#402=DIRECTION('center_axis',(2.77555756156289E-17,5.55111512312578E-17,
-1.));
#403=DIRECTION('ref_axis',(-1.,1.54074395550979E-33,0.));
#404=DIRECTION('',(1.,-1.54074395550979E-33,2.77555756156289E-17));
#405=DIRECTION('center_axis',(2.77555756156289E-17,5.55111512312578E-17,
-1.));
#406=DIRECTION('ref_axis',(-1.,1.54074395550979E-33,0.));
#407=DIRECTION('center_axis',(2.77555756156289E-17,5.55111512312578E-17,
-1.));
#408=DIRECTION('ref_axis',(-1.,1.54074395550979E-33,0.));
#409=DIRECTION('',(-6.5881227025356E-33,-1.,-5.55111512312578E-17));
#410=DIRECTION('center_axis',(2.77555756156289E-17,5.55111512312578E-17,
-1.));
#411=DIRECTION('ref_axis',(-1.,1.54074395550979E-33,0.));
#412=DIRECTION('center_axis',(2.77555756156289E-17,5.55111512312578E-17,
-1.));
#413=DIRECTION('ref_axis',(-1.,1.54074395550979E-33,0.));
#414=DIRECTION('',(-1.,1.4716989360581E-32,-2.77555756156289E-17));
#415=DIRECTION('center_axis',(-1.54074395550979E-33,-1.,0.));
#416=DIRECTION('ref_axis',(1.,-1.54074395550979E-33,2.77555756156289E-17));
#417=DIRECTION('',(0.,0.,1.));
#418=DIRECTION('',(1.,-1.54074395550979E-33,2.77555756156289E-17));
#419=DIRECTION('',(0.,0.,1.));
#420=DIRECTION('center_axis',(-2.77555756156289E-17,-5.55111512312578E-17,
1.));
#421=DIRECTION('ref_axis',(-1.,1.54074395550979E-33,-2.77555756156289E-17));
#422=DIRECTION('center_axis',(-2.77555756156289E-17,-5.55111512312578E-17,
1.));
#423=DIRECTION('ref_axis',(-1.,1.54074395550979E-33,-2.77555756156289E-17));
#424=DIRECTION('center_axis',(-2.77555756156289E-17,-5.55111512312578E-17,
1.));
#425=DIRECTION('ref_axis',(-1.,1.54074395550979E-33,-2.77555756156289E-17));
#426=DIRECTION('center_axis',(-2.77555756156289E-17,-5.55111512312578E-17,
1.));
#427=DIRECTION('ref_axis',(-1.,1.54074395550979E-33,-2.77555756156289E-17));
#428=DIRECTION('center_axis',(-2.77555756156289E-17,-5.55111512312578E-17,
1.));
#429=DIRECTION('ref_axis',(-1.,1.54074395550979E-33,-2.77555756156289E-17));
#430=DIRECTION('center_axis',(-2.77555756156289E-17,-5.55111512312578E-17,
1.));
#431=DIRECTION('ref_axis',(-1.,1.54074395550979E-33,-2.77555756156289E-17));
#432=DIRECTION('center_axis',(-2.77555756156289E-17,-5.55111512312578E-17,
1.));
#433=DIRECTION('ref_axis',(-1.,1.54074395550979E-33,-2.77555756156289E-17));
#434=DIRECTION('center_axis',(-2.77555756156289E-17,-5.55111512312578E-17,
1.));
#435=DIRECTION('ref_axis',(-1.,1.54074395550979E-33,-2.77555756156289E-17));
#436=DIRECTION('center_axis',(-2.77555756156289E-17,-5.55111512312578E-17,
1.));
#437=DIRECTION('ref_axis',(-1.,1.54074395550979E-33,-2.77555756156289E-17));
#438=DIRECTION('center_axis',(0.,0.,1.));
#439=DIRECTION('ref_axis',(-1.,1.54074395550979E-33,0.));
#440=DIRECTION('center_axis',(2.77555756156289E-17,5.55111512312578E-17,
-1.));
#441=DIRECTION('ref_axis',(-1.,1.54074395550979E-33,0.));
#442=DIRECTION('',(0.,0.,-1.));
#443=DIRECTION('center_axis',(0.,0.,1.));
#444=DIRECTION('ref_axis',(-1.,1.54074395550979E-33,0.));
#445=DIRECTION('center_axis',(2.77555756156289E-17,5.55111512312578E-17,
-1.));
#446=DIRECTION('ref_axis',(-1.,1.54074395550979E-33,0.));
#447=DIRECTION('',(0.,0.,-1.));
#448=DIRECTION('center_axis',(0.,0.,1.));
#449=DIRECTION('ref_axis',(-1.,1.54074395550979E-33,0.));
#450=DIRECTION('center_axis',(2.77555756156289E-17,5.55111512312578E-17,
-1.));
#451=DIRECTION('ref_axis',(-1.,1.54074395550979E-33,0.));
#452=DIRECTION('',(0.,0.,-1.));
#453=DIRECTION('center_axis',(0.,0.,1.));
#454=DIRECTION('ref_axis',(-1.,1.54074395550979E-33,0.));
#455=DIRECTION('center_axis',(-2.77555756156289E-17,-5.55111512312578E-17,
1.));
#456=DIRECTION('ref_axis',(-1.,1.54074395550979E-33,0.));
#457=DIRECTION('',(0.,0.,1.));
#458=DIRECTION('',(0.,0.,-1.));
#459=DIRECTION('center_axis',(-1.,6.5881227025356E-33,0.));
#460=DIRECTION('ref_axis',(-6.5881227025356E-33,-1.,-5.55111512312578E-17));
#461=DIRECTION('',(-6.5881227025356E-33,-1.,-5.55111512312578E-17));
#462=DIRECTION('',(0.,0.,1.));
#463=DIRECTION('center_axis',(0.,0.,1.));
#464=DIRECTION('ref_axis',(-1.,1.54074395550979E-33,0.));
#465=DIRECTION('center_axis',(-2.77555756156289E-17,-5.55111512312578E-17,
1.));
#466=DIRECTION('ref_axis',(-1.,1.54074395550979E-33,0.));
#467=DIRECTION('',(0.,0.,1.));
#468=DIRECTION('',(0.,0.,-1.));
#469=DIRECTION('center_axis',(1.4716989360581E-32,1.,0.));
#470=DIRECTION('ref_axis',(-1.,1.4716989360581E-32,-2.77555756156289E-17));
#471=DIRECTION('',(-1.,1.4716989360581E-32,-2.77555756156289E-17));
#472=DIRECTION('',(0.,0.,1.));
#473=DIRECTION('center_axis',(1.,1.71056941445901E-49,0.));
#474=DIRECTION('ref_axis',(-1.71056941445901E-49,1.,5.55111512312578E-17));
#475=DIRECTION('',(0.,0.,1.));
#476=DIRECTION('',(-1.71056941445901E-49,1.,5.55111512312578E-17));
#477=DIRECTION('',(0.,0.,1.));
#478=DIRECTION('center_axis',(0.,0.,1.));
#479=DIRECTION('ref_axis',(-1.,1.54074395550979E-33,0.));
#480=DIRECTION('center_axis',(-2.77555756156289E-17,-5.55111512312578E-17,
1.));
#481=DIRECTION('ref_axis',(-1.,1.54074395550979E-33,0.));
#482=DIRECTION('',(0.,0.,-1.));
#483=DIRECTION('center_axis',(-2.77555756156289E-17,-5.55111512312578E-17,
1.));
#484=DIRECTION('ref_axis',(1.,0.,2.77555756156289E-17));
#485=DIRECTION('center_axis',(-2.77555756156289E-17,-5.55111512312578E-17,
1.));
#486=DIRECTION('ref_axis',(-1.,1.54074395550979E-33,0.));
#487=DIRECTION('center_axis',(2.77555756156289E-17,5.55111512312578E-17,
-1.));
#488=DIRECTION('ref_axis',(-1.,1.54074395550979E-33,0.));
#489=DIRECTION('center_axis',(0.,0.,1.));
#490=DIRECTION('ref_axis',(-1.,1.54074395550979E-33,0.));
#491=DIRECTION('',(0.,0.,-1.));
#492=DIRECTION('center_axis',(-2.77555756156289E-17,-5.55111512312578E-17,
1.));
#493=DIRECTION('ref_axis',(-1.,1.54074395550979E-33,-2.77555756156289E-17));
#494=DIRECTION('center_axis',(0.,0.,1.));
#495=DIRECTION('ref_axis',(-1.,1.54074395550979E-33,0.));
#496=DIRECTION('',(0.,0.,-1.));
#497=DIRECTION('center_axis',(-2.77555756156289E-17,-5.55111512312578E-17,
1.));
#498=DIRECTION('ref_axis',(-1.,1.54074395550979E-33,-2.77555756156289E-17));
#499=DIRECTION('center_axis',(-2.77555756156289E-17,-5.55111512312578E-17,
1.));
#500=DIRECTION('ref_axis',(-1.,1.54074395550979E-33,-2.77555756156289E-17));
#501=CARTESIAN_POINT('',(0.,0.,0.));
#502=CARTESIAN_POINT('Origin',(37.0711805842998,14.4976092354725,-49.844678064474));
#503=CARTESIAN_POINT('',(48.5711805842998,22.4976092354725,-49.844678064474));
#504=CARTESIAN_POINT('',(45.0711805842998,25.9976092354725,-49.844678064474));
#505=CARTESIAN_POINT('Origin',(45.0711805842998,22.4976092354725,-49.844678064474));
#506=CARTESIAN_POINT('',(48.5711805842998,6.49760923547249,-49.844678064474));
#507=CARTESIAN_POINT('',(48.5711805842998,10.4976092354725,-49.844678064474));
#508=CARTESIAN_POINT('',(45.0711805842998,2.99760923547249,-49.844678064474));
#509=CARTESIAN_POINT('Origin',(45.0711805842998,6.49760923547249,-49.844678064474));
#510=CARTESIAN_POINT('',(29.0711806280683,2.99760923547249,-49.844678064474));
#511=CARTESIAN_POINT('',(33.071180606184,2.99760923547249,-49.844678064474));
#512=CARTESIAN_POINT('',(32.5711805842998,6.49760923547249,-49.844678064474));
#513=CARTESIAN_POINT('Origin',(29.0711805842998,6.49760923547249,-49.844678064474));
#514=CARTESIAN_POINT('',(25.5711805842998,6.4976093457517,-49.844678064474));
#515=CARTESIAN_POINT('Origin',(29.0711805842998,6.49760923547249,-49.844678064474));
#516=CARTESIAN_POINT('',(25.5711805842998,22.4976093457517,-49.844678064474));
#517=CARTESIAN_POINT('',(25.5711805842998,18.4976092906121,-49.844678064474));
#518=CARTESIAN_POINT('',(32.5711805842998,22.4976092354725,-49.844678064474));
#519=CARTESIAN_POINT('Origin',(29.0711805842998,22.4976092354725,-49.844678064474));
#520=CARTESIAN_POINT('',(29.0711805842998,25.9976092354725,-49.844678064474));
#521=CARTESIAN_POINT('Origin',(29.0711805842998,22.4976092354725,-49.844678064474));
#522=CARTESIAN_POINT('',(41.0711805842998,25.9976092354725,-49.844678064474));
#523=CARTESIAN_POINT('Origin',(29.0711806280683,2.99760923547249,-50.844678064474));
#524=CARTESIAN_POINT('',(45.0711805842998,2.99760923547249,-47.844678064474));
#525=CARTESIAN_POINT('',(45.0711805842998,2.99760923547249,-50.844678064474));
#526=CARTESIAN_POINT('',(29.0711806280683,2.99760923547249,-47.844678064474));
#527=CARTESIAN_POINT('',(33.071180606184,2.99760923547249,-47.844678064474));
#528=CARTESIAN_POINT('',(29.0711806280683,2.99760923547249,-50.844678064474));
#529=CARTESIAN_POINT('Origin',(37.0711805842998,14.4976092354725,-55.844678064474));
#530=CARTESIAN_POINT('',(32.5711805842998,6.49760923547249,-55.844678064474));
#531=CARTESIAN_POINT('Origin',(29.0711805842998,6.49760923547249,-55.844678064474));
#532=CARTESIAN_POINT('',(30.8211805842998,6.49760923547249,-55.844678064474));
#533=CARTESIAN_POINT('Origin',(29.0711805842998,6.49760923547249,-55.844678064474));
#534=CARTESIAN_POINT('Origin',(37.0711805842998,14.4976092354725,-55.844678064474));
#535=CARTESIAN_POINT('',(32.5711805842998,22.4976092354725,-55.844678064474));
#536=CARTESIAN_POINT('Origin',(29.0711805842998,22.4976092354725,-55.844678064474));
#537=CARTESIAN_POINT('',(30.8211805842998,22.4976092354725,-55.844678064474));
#538=CARTESIAN_POINT('Origin',(29.0711805842998,22.4976092354725,-55.844678064474));
#539=CARTESIAN_POINT('Origin',(37.0711805842998,14.4976092354725,-55.844678064474));
#540=CARTESIAN_POINT('',(48.5711805842998,6.49760923547249,-55.844678064474));
#541=CARTESIAN_POINT('Origin',(45.0711805842998,6.49760923547249,-55.844678064474));
#542=CARTESIAN_POINT('',(46.8211805842998,6.49760923547249,-55.844678064474));
#543=CARTESIAN_POINT('Origin',(45.0711805842998,6.49760923547249,-55.844678064474));
#544=CARTESIAN_POINT('Origin',(45.0711805842998,6.49760923547249,-50.844678064474));
#545=CARTESIAN_POINT('',(46.8211805842998,6.49760923547249,-47.844678064474));
#546=CARTESIAN_POINT('Origin',(45.0711805842998,6.49760923547249,-47.844678064474));
#547=CARTESIAN_POINT('',(46.8211805842998,6.49760923547249,-50.844678064474));
#548=CARTESIAN_POINT('Origin',(29.0711805842998,6.49760923547249,-50.844678064474));
#549=CARTESIAN_POINT('',(30.8211805842998,6.49760923547249,-47.844678064474));
#550=CARTESIAN_POINT('Origin',(29.0711805842998,6.49760923547249,-47.844678064474));
#551=CARTESIAN_POINT('',(30.8211805842998,6.49760923547249,-50.844678064474));
#552=CARTESIAN_POINT('Origin',(29.0711805842998,22.4976092354725,-50.844678064474));
#553=CARTESIAN_POINT('',(30.8211805842998,22.4976092354725,-47.844678064474));
#554=CARTESIAN_POINT('Origin',(29.0711805842998,22.4976092354725,-47.844678064474));
#555=CARTESIAN_POINT('',(30.8211805842998,22.4976092354725,-50.844678064474));
#556=CARTESIAN_POINT('Origin',(29.0711805842998,6.49760923547249,-50.844678064474));
#557=CARTESIAN_POINT('',(25.5711805842998,6.4976093457517,-47.844678064474));
#558=CARTESIAN_POINT('Origin',(29.0711805842998,6.49760923547249,-47.844678064474));
#559=CARTESIAN_POINT('',(25.5711805842998,6.4976093457517,-50.844678064474));
#560=CARTESIAN_POINT('',(32.5711805842998,6.49760923547249,-50.844678064474));
#561=CARTESIAN_POINT('Origin',(25.5711805842998,22.4976093457517,-50.844678064474));
#562=CARTESIAN_POINT('',(25.5711805842998,22.4976093457517,-47.844678064474));
#563=CARTESIAN_POINT('',(25.5711805842998,18.4976092906121,-47.844678064474));
#564=CARTESIAN_POINT('',(25.5711805842998,22.4976093457517,-50.844678064474));
#565=CARTESIAN_POINT('Origin',(29.0711805842998,22.4976092354725,-50.844678064474));
#566=CARTESIAN_POINT('',(29.0711805842998,25.9976092354725,-47.844678064474));
#567=CARTESIAN_POINT('Origin',(29.0711805842998,22.4976092354725,-47.844678064474));
#568=CARTESIAN_POINT('',(29.0711805842998,25.9976092354725,-50.844678064474));
#569=CARTESIAN_POINT('',(32.5711805842998,22.4976092354725,-50.844678064474));
#570=CARTESIAN_POINT('Origin',(45.0711805842998,25.9976092354725,-50.844678064474));
#571=CARTESIAN_POINT('',(45.0711805842998,25.9976092354725,-47.844678064474));
#572=CARTESIAN_POINT('',(41.0711805842998,25.9976092354725,-47.844678064474));
#573=CARTESIAN_POINT('',(45.0711805842998,25.9976092354725,-50.844678064474));
#574=CARTESIAN_POINT('Origin',(48.5711805842998,6.49760923547249,-50.844678064474));
#575=CARTESIAN_POINT('',(48.5711805842998,22.4976092354725,-47.844678064474));
#576=CARTESIAN_POINT('',(48.5711805842998,22.4976092354725,-50.844678064474));
#577=CARTESIAN_POINT('',(48.5711805842998,6.49760923547249,-47.844678064474));
#578=CARTESIAN_POINT('',(48.5711805842998,10.4976092354725,-47.844678064474));
#579=CARTESIAN_POINT('',(48.5711805842998,6.49760923547249,-50.844678064474));
#580=CARTESIAN_POINT('Origin',(45.0711805842998,6.49760923547249,-50.844678064474));
#581=CARTESIAN_POINT('Origin',(45.0711805842998,6.49760923547249,-47.844678064474));
#582=CARTESIAN_POINT('',(48.5711805842998,6.49760923547249,-50.844678064474));
#583=CARTESIAN_POINT('Origin',(37.0711805842998,14.4976092354725,-47.844678064474));
#584=CARTESIAN_POINT('Origin',(45.0711805842998,22.4976092354725,-47.844678064474));
#585=CARTESIAN_POINT('',(46.8211805842998,22.4976092354725,-47.844678064474));
#586=CARTESIAN_POINT('Origin',(45.0711805842998,22.4976092354725,-47.844678064474));
#587=CARTESIAN_POINT('Origin',(45.0711805842998,22.4976092354725,-55.844678064474));
#588=CARTESIAN_POINT('',(46.8211805842997,22.4976092354725,-55.844678064474));
#589=CARTESIAN_POINT('',(46.8211805842998,22.4976092354725,-55.844678064474));
#590=CARTESIAN_POINT('Origin',(45.0711805842998,22.4976092354725,-55.844678064474));
#591=CARTESIAN_POINT('Origin',(45.0711805842998,22.4976092354725,-55.844678064474));
#592=CARTESIAN_POINT('',(48.5711805842998,22.4976092354725,-55.844678064474));
#593=CARTESIAN_POINT('',(48.5711805842998,22.4976092354725,-55.844678064474));
#594=CARTESIAN_POINT('Origin',(45.0711805842998,22.4976092354725,-55.844678064474));
#595=CARTESIAN_POINT('Origin',(37.0711805842998,14.4976092354725,-55.844678064474));
#596=UNCERTAINTY_MEASURE_WITH_UNIT(LENGTH_MEASURE(0.01),#600,
'DISTANCE_ACCURACY_VALUE',
'Maximum model space distance between geometric entities at asserted c
onnectivities');
#597=UNCERTAINTY_MEASURE_WITH_UNIT(LENGTH_MEASURE(0.01),#600,
'DISTANCE_ACCURACY_VALUE',
'Maximum model space distance between geometric entities at asserted c
onnectivities');
#598=(
GEOMETRIC_REPRESENTATION_CONTEXT(3)
GLOBAL_UNCERTAINTY_ASSIGNED_CONTEXT((#596))
GLOBAL_UNIT_ASSIGNED_CONTEXT((#600,#602,#603))
REPRESENTATION_CONTEXT('','3D')
);
#599=(
GEOMETRIC_REPRESENTATION_CONTEXT(3)
GLOBAL_UNCERTAINTY_ASSIGNED_CONTEXT((#597))
GLOBAL_UNIT_ASSIGNED_CONTEXT((#600,#602,#603))
REPRESENTATION_CONTEXT('','3D')
);
#600=(
LENGTH_UNIT()
NAMED_UNIT(*)
SI_UNIT(.MILLI.,.METRE.)
);
#601=(
LENGTH_UNIT()
NAMED_UNIT(*)
SI_UNIT($,.METRE.)
);
#602=(
NAMED_UNIT(*)
PLANE_ANGLE_UNIT()
SI_UNIT($,.RADIAN.)
);
#603=(
NAMED_UNIT(*)
SI_UNIT($,.STERADIAN.)
SOLID_ANGLE_UNIT()
);
#604=SHAPE_DEFINITION_REPRESENTATION(#605,#606);
#605=PRODUCT_DEFINITION_SHAPE('',$,#608);
#606=SHAPE_REPRESENTATION('',(#354),#598);
#607=PRODUCT_DEFINITION_CONTEXT('part definition',#612,'design');
#608=PRODUCT_DEFINITION('Encoder Insertion Tool',
'Encoder Insertion Tool v1',#609,#607);
#609=PRODUCT_DEFINITION_FORMATION('',$,#614);
#610=PRODUCT_RELATED_PRODUCT_CATEGORY('Encoder Insertion Tool v1',
'Encoder Insertion Tool v1',(#614));
#611=APPLICATION_PROTOCOL_DEFINITION('international standard',
'automotive_design',2009,#612);
#612=APPLICATION_CONTEXT(
'Core Data for Automotive Mechanical Design Process');
#613=PRODUCT_CONTEXT('part definition',#612,'mechanical');
#614=PRODUCT('Encoder Insertion Tool','Encoder Insertion Tool v1',$,(#613));
#615=PRESENTATION_STYLE_ASSIGNMENT((#616));
#616=SURFACE_STYLE_USAGE(.BOTH.,#617);
#617=SURFACE_SIDE_STYLE('',(#618));
#618=SURFACE_STYLE_FILL_AREA(#619);
#619=FILL_AREA_STYLE('Steel - Satin',(#620));
#620=FILL_AREA_STYLE_COLOUR('Steel - Satin',#621);
#621=COLOUR_RGB('Steel - Satin',0.627450980392157,0.627450980392157,0.627450980392157);
ENDSEC;
END-ISO-10303-21;
